<svg xmlns="http://www.w3.org/2000/svg" viewBox="0 0 64 64" style="enable-background:new 0 0 64 64" xml:space="preserve"><style>.st0{display:none}.st1{display:inline}.st2{fill:#f1f2f2}.st3{fill:#36d7b7}.st4{fill:none;stroke:#414042;stroke-miterlimit:10}.st5,.st6,.st7{display:inline;fill:#d1d3d4}.st6,.st7{fill:#414042}.st7{fill:none;stroke:#414042;stroke-miterlimit:10}.st8{fill:#fff}.st9{fill:#f5ab35}.st10{fill:#f9cd86}.st11,.st12{display:inline;fill:#36d7b7}.st12{fill:#fff}.st13,.st14,.st16{display:inline;fill:#e6e7e8}.st14,.st16{fill:#5edfc5}.st16{fill:#f7bc5d}.st17,.st18,.st19{display:inline;fill:#f5ab35}.st18,.st19{fill:#b88028}.st19{fill:#29a189}.st20{fill:#e6e7e8}.st21{fill:#bcbec0}.st22{fill:#58595b}.st23{fill:#29a189}.st24{fill:#414042}.st25{fill:#d1d3d4}.st26,.st27,.st28{display:inline;fill:#bcbec0}.st27,.st28{fill:#f1f2f2}.st28{fill:none;stroke:#414042;stroke-linecap:round;stroke-miterlimit:10}.st29{fill:#5edfc5}.st34{display:inline;fill:#afefe2}</style><g id="icons"><g id="XMLID_372_"><path id="XMLID_354_" class="st20" d="M16.7 24.3h14v1.9h-14z"/><path id="XMLID_355_" class="st20" d="M33.7 24.3h13.6v1.9H33.7z"/><path id="XMLID_356_" class="st4" d="M16.7 24.3h30.7"/><path id="XMLID_353_" class="st3" d="M24.9 20.5h14.3v6H24.9z"/><path id="XMLID_308_" class="st2" d="M15.4 26.6h33.4v22.8H15.4z"/><path id="XMLID_348_" class="st3" d="M28.5 37h6.9v11.5h-6.9z"/><path id="XMLID_349_" class="st29" d="M36.1 37h11v8.2h-11z"/><path id="XMLID_357_" class="st29" d="M17.4 37h10.2v8.2H17.4z"/><circle id="XMLID_350_" class="st24" cx="33.9" cy="43.2" r=".5"/><path id="XMLID_352_" class="st4" d="M13.6 49.3h37"/><path id="XMLID_369_" class="st4" d="M10.1 51.1h43.8"/><path id="XMLID_362_" class="st4" d="M15.9 49.3V34.6"/><path id="XMLID_361_" class="st4" d="M48.5 49.3V34.6"/><path id="XMLID_351_" class="st4" d="M15.5 26.6h33.4"/><path id="XMLID_360_" class="st4" d="M24.8 32.7h14.8v1.9H24.8z"/><path id="XMLID_363_" class="st10" d="m14.6 29.9.9-2.9h33.4l1.3 2.9z"/><path id="XMLID_364_" class="st4" d="M24.9 20.5h14.3"/><path id="XMLID_368_" class="st4" d="M35.9 45.2h11.4"/><path id="XMLID_365_" class="st2" d="M27.8 22.8h8.8v.9h-8.8z"/><path id="XMLID_366_" class="st2" d="M29.2 24.3h5.4v.4h-5.4z"/><g id="XMLID_359_"><path id="XMLID_309_" class="st9" d="M16.3 32.4c-.9 0-1.6-.7-1.6-1.6v-.9h3.2v.9c0 .9-.7 1.6-1.6 1.6z"/><path id="XMLID_310_" class="st9" d="M19.5 32.4c-.9 0-1.6-.7-1.6-1.6v-.9h3.2v.9c0 .9-.7 1.6-1.6 1.6z"/><path id="XMLID_312_" class="st9" d="M22.8 32.4c-.9 0-1.6-.7-1.6-1.6v-.9h3.2v.9c0 .9-.8 1.6-1.6 1.6z"/><path id="XMLID_311_" class="st9" d="M26 32.4c-.9 0-1.6-.7-1.6-1.6v-.9h3.2v.9c0 .9-.7 1.6-1.6 1.6z"/><path id="XMLID_314_" class="st9" d="M29.2 32.4c-.9 0-1.6-.7-1.6-1.6v-.9h3.2v.9c.1.9-.7 1.6-1.6 1.6z"/><path id="XMLID_313_" class="st9" d="M32.5 32.4c-.9 0-1.6-.7-1.6-1.6v-.9h3.2v.9c0 .9-.7 1.6-1.6 1.6z"/><path id="XMLID_317_" class="st9" d="M35.7 32.4c-.9 0-1.6-.7-1.6-1.6v-.9h3.2v.9c.1.9-.7 1.6-1.6 1.6z"/><path id="XMLID_316_" class="st9" d="M39 32.4c-.9 0-1.6-.7-1.6-1.6v-.9h3.2v.9c0 .9-.7 1.6-1.6 1.6z"/><path id="XMLID_320_" class="st9" d="M42.2 32.4c-.9 0-1.6-.7-1.6-1.6v-.9h3.2v.9c.1.9-.7 1.6-1.6 1.6z"/><path id="XMLID_318_" class="st9" d="M45.5 32.4c-.9 0-1.6-.7-1.6-1.6v-.9h3.2v.9c0 .9-.7 1.6-1.6 1.6z"/><path id="XMLID_358_" class="st9" d="M48.5 32.4c-.9 0-1.6-.7-1.6-1.6v-.9h3.2v.9c.1.9-.7 1.6-1.6 1.6z"/></g><path id="XMLID_370_" class="st20" d="M51.7 17.7c0-.4-.4-.8-.8-.8-.1 0-.2 0-.3.1-.1-.3-.4-.5-.8-.6v-.2c0-.7-.6-1.3-1.3-1.3-.3 0-.6.1-.9.4-.1-1.2-1.1-2.2-2.4-2.2-1.1 0-2 .7-2.3 1.8h-.3c-.8 0-1.4.5-1.6 1.2-.2-.1-.4-.1-.6-.1-.8 0-1.5.7-1.5 1.5 0 .3.1.5.2.8h12.4c.1-.4.2-.5.2-.6z"/><path id="XMLID_371_" class="st20" d="M24.9 18.8c0-.3-.2-.6-.6-.6-.1 0-.2 0-.2.1-.1-.2-.3-.4-.5-.4v-.2c0-.5-.4-.9-.9-.9-.2 0-.5.1-.6.3-.1-.9-.8-1.6-1.7-1.6-.8 0-1.4.5-1.6 1.2h-.2c-.5 0-1 .4-1.1.9-.1 0-.3-.1-.4-.1-.6 0-1.1.5-1.1 1.1 0 .2.1.4.2.5H25c-.1-.1-.1-.2-.1-.3z"/><path id="XMLID_367_" class="st4" d="M16.7 45.2h11.4"/></g></g></svg>